<svg width="48" height="46" viewBox="0 0 48 46" fill="none" xmlns="http://www.w3.org/2000/svg">
<g clip-path="url(#clip0_40006632_76308)">
<path d="M46.395 45.8764C46.2238 45.8769 46.0543 45.8435 45.8962 45.778C45.7381 45.7126 45.5946 45.6165 45.474 45.4953L36.0759 36.1153L35.1543 36.7599C32.7045 38.4797 29.7817 39.4009 26.7867 39.3972C18.7227 39.3972 12.1621 32.8488 12.1621 24.8004C12.1621 16.7521 18.7227 10.2031 26.7867 10.2031C34.8506 10.2031 41.4106 16.7515 41.4106 24.8004C41.4163 27.8817 40.4361 30.8842 38.6127 33.3705L37.938 34.2957L47.316 43.6562C47.4986 43.8379 47.623 44.0696 47.6735 44.322C47.724 44.5744 47.6983 44.8361 47.5997 45.0739C47.5011 45.3117 47.3339 45.5149 47.1194 45.6577C46.905 45.8006 46.6528 45.8767 46.395 45.8764ZM26.7867 12.8073C20.1616 12.8073 14.7682 18.1836 14.7682 24.8004C14.7682 31.4173 20.1616 36.7935 26.7867 36.7935C33.4117 36.7935 38.8063 31.4173 38.8063 24.8004C38.8063 18.1836 33.4135 12.8073 26.7867 12.8073Z" fill="#01B8D8"/>
<path d="M45.4878 41.8281L36.1098 32.4675L36.7846 31.5424C38.6077 29.0557 39.5879 26.0531 39.5825 22.9717C39.5825 14.9233 33.0219 8.375 24.9579 8.375C16.894 8.375 10.334 14.9233 10.334 22.9717C10.334 31.0201 16.8946 37.5684 24.9579 37.5684C27.9531 37.5724 30.8761 36.6514 33.3262 34.9317L34.2466 34.2872L43.6453 43.6672C43.8896 43.9111 44.221 44.0481 44.5665 44.0481C44.9121 44.0481 45.2435 43.9111 45.4878 43.6672C45.7322 43.4233 45.8694 43.0925 45.8694 42.7476C45.8694 42.4027 45.7322 42.0719 45.4878 41.8281ZM34.3164 30.6774L28.955 25.1476L29.8387 24.2023C30.4514 23.5467 30.8588 22.7266 31.0109 21.8429C31.1629 20.9592 31.053 20.0505 30.6946 19.2283C30.3362 18.4061 29.745 17.7064 28.9935 17.2151C28.2421 16.7238 27.3632 16.4624 26.4649 16.463H22.3495C21.6412 16.4636 20.9621 16.7443 20.4609 17.2438C19.9597 17.7432 19.6772 18.4205 19.6753 19.1274V28.1807C19.6753 28.5255 19.8125 28.8561 20.0567 29.0998C20.3009 29.3435 20.6321 29.4805 20.9774 29.4805C21.3228 29.4805 21.654 29.3435 21.8982 29.0998C22.1424 28.8561 22.2796 28.5255 22.2796 28.1807V19.0607H26.4649C26.9876 19.0622 27.4891 19.2671 27.8629 19.6318C28.2367 19.9965 28.4533 20.4922 28.4667 21.0138C28.4801 21.5354 28.2893 22.0416 27.9347 22.4249C27.5802 22.8083 27.0898 23.0386 26.5679 23.0668C26.5054 23.0572 26.4423 23.0521 26.3791 23.0515H24.781C24.4356 23.0515 24.1044 23.1884 23.8602 23.4322C23.616 23.6759 23.4788 24.0065 23.4788 24.3512C23.4788 24.6959 23.616 25.0265 23.8602 25.2703C24.1044 25.514 24.4356 25.651 24.781 25.651H25.4705C25.7759 25.651 26.0334 25.9145 26.0334 25.9145L32.4561 32.4983L30.9408 33.3697C29.121 34.4159 27.058 34.9669 24.9579 34.9678C18.3287 34.9678 12.9425 29.5862 12.9425 22.9747C12.9425 16.3631 18.3334 10.9816 24.9579 10.9816C31.5824 10.9816 36.9764 16.3625 36.9764 22.9747C36.9776 25.1854 36.3648 27.3531 35.206 29.2371L34.3164 30.6774Z" fill="#003791"/>
</g>
<defs>
<clipPath id="clip0_40006632_76308">
<rect width="48" height="46" fill="white"/>
</clipPath>
</defs>
</svg>
